<svg width="50" height="50" viewBox="0 0 50 50" fill="none" xmlns="http://www.w3.org/2000/svg">
<path d="M12.5208 33.6167L8.62707 8.33334H6.24999C5.69746 8.33334 5.16755 8.11385 4.77685 7.72315C4.38615 7.33245 4.16666 6.80254 4.16666 6.25001C4.16666 5.69747 4.38615 5.16757 4.77685 4.77687C5.16755 4.38617 5.69746 4.16667 6.24999 4.16667H10.3854C10.888 4.15739 11.3768 4.33143 11.7604 4.65626C12.1542 4.98737 12.411 5.45284 12.4812 5.96251L13.1646 10.4167H29.1667V14.5833H13.8062L16.3687 31.25H35.95L39.075 20.8333H43.425L39.4958 33.9313C39.3672 34.3606 39.1035 34.737 38.744 35.0046C38.3844 35.2722 37.9482 35.4167 37.5 35.4167H14.6167C14.0998 35.4262 13.5981 35.2419 13.2104 34.9C12.8325 34.5697 12.5869 34.1139 12.5187 33.6167H12.5208ZM20.8333 41.6667C20.8333 42.7717 20.3943 43.8316 19.6129 44.613C18.8315 45.3944 17.7717 45.8333 16.6667 45.8333C15.5616 45.8333 14.5018 45.3944 13.7204 44.613C12.939 43.8316 12.5 42.7717 12.5 41.6667C12.5 40.5616 12.939 39.5018 13.7204 38.7204C14.5018 37.939 15.5616 37.5 16.6667 37.5C17.7717 37.5 18.8315 37.939 19.6129 38.7204C20.3943 39.5018 20.8333 40.5616 20.8333 41.6667V41.6667ZM39.5833 41.6667C39.5833 42.7717 39.1443 43.8316 38.3629 44.613C37.5815 45.3944 36.5217 45.8333 35.4167 45.8333C34.3116 45.8333 33.2518 45.3944 32.4704 44.613C31.689 43.8316 31.25 42.7717 31.25 41.6667C31.25 40.5616 31.689 39.5018 32.4704 38.7204C33.2518 37.939 34.3116 37.5 35.4167 37.5C36.5217 37.5 37.5815 37.939 38.3629 38.7204C39.1443 39.5018 39.5833 40.5616 39.5833 41.6667V41.6667ZM39.5833 4.16667C40.1359 4.16667 40.6658 4.38617 41.0565 4.77687C41.4472 5.16757 41.6667 5.69747 41.6667 6.25001V8.33334H43.75C44.3025 8.33334 44.8324 8.55283 45.2231 8.94354C45.6138 9.33424 45.8333 9.86414 45.8333 10.4167C45.8333 10.9692 45.6138 11.4991 45.2231 11.8898C44.8324 12.2805 44.3025 12.5 43.75 12.5H41.6667V14.5833C41.6667 15.1359 41.4472 15.6658 41.0565 16.0565C40.6658 16.4472 40.1359 16.6667 39.5833 16.6667C39.0308 16.6667 38.5009 16.4472 38.1102 16.0565C37.7195 15.6658 37.5 15.1359 37.5 14.5833V12.5H35.4167C34.8641 12.5 34.3342 12.2805 33.9435 11.8898C33.5528 11.4991 33.3333 10.9692 33.3333 10.4167C33.3333 9.86414 33.5528 9.33424 33.9435 8.94354C34.3342 8.55283 34.8641 8.33334 35.4167 8.33334H37.5V6.25001C37.5 5.69747 37.7195 5.16757 38.1102 4.77687C38.5009 4.38617 39.0308 4.16667 39.5833 4.16667Z" fill="black"/>
</svg>
