<svg width="50" height="50" viewBox="0 0 50 50" fill="none" xmlns="http://www.w3.org/2000/svg">
<path d="M33.4594 5.1125C34.0452 5.69852 34.3743 6.49323 34.3743 7.32187C34.3743 8.15051 34.0452 8.94522 33.4594 9.53124L17.9906 25L33.4594 40.4687C34.0286 41.0581 34.3436 41.8475 34.3365 42.6669C34.3294 43.4862 34.0007 44.27 33.4213 44.8494C32.8419 45.4288 32.0581 45.7575 31.2388 45.7646C30.4194 45.7717 29.63 45.4567 29.0406 44.8875L11.3625 27.2094C10.7767 26.6233 10.4475 25.8286 10.4475 25C10.4475 24.1713 10.7767 23.3766 11.3625 22.7906L29.0406 5.1125C29.6266 4.52665 30.4214 4.19754 31.25 4.19754C32.0786 4.19754 32.8733 4.52665 33.4594 5.1125V5.1125Z" fill="black"/>
</svg>
