<svg width="50" height="50" viewBox="0 0 50 50" fill="none" xmlns="http://www.w3.org/2000/svg">
<path d="M25 14.5833V6.25H4.16669V43.75H45.8334V14.5833H25ZM12.5 39.5833H8.33335V35.4167H12.5V39.5833ZM12.5 31.25H8.33335V27.0833H12.5V31.25ZM12.5 22.9167H8.33335V18.75H12.5V22.9167ZM12.5 14.5833H8.33335V10.4167H12.5V14.5833ZM20.8334 39.5833H16.6667V35.4167H20.8334V39.5833ZM20.8334 31.25H16.6667V27.0833H20.8334V31.25ZM20.8334 22.9167H16.6667V18.75H20.8334V22.9167ZM20.8334 14.5833H16.6667V10.4167H20.8334V14.5833ZM41.6667 39.5833H25V35.4167H29.1667V31.25H25V27.0833H29.1667V22.9167H25V18.75H41.6667V39.5833ZM37.5 22.9167H33.3334V27.0833H37.5V22.9167ZM37.5 31.25H33.3334V35.4167H37.5V31.25Z" fill="black"/>
</svg>
