<svg width="50" height="50" viewBox="0 0 50 50" fill="none" xmlns="http://www.w3.org/2000/svg">
<path d="M33.4668 17.3242C33.4668 17.1094 33.291 16.9336 33.0762 16.9336L29.8535 16.9482L25 22.7344L20.1514 16.9531L16.9238 16.9385C16.709 16.9385 16.5332 17.1094 16.5332 17.3291C16.5332 17.4219 16.5674 17.5098 16.626 17.583L22.9785 25.1514L16.626 32.7148C16.567 32.7864 16.5342 32.876 16.5332 32.9687C16.5332 33.1836 16.709 33.3594 16.9238 33.3594L20.1514 33.3447L25 27.5586L29.8486 33.3398L33.0713 33.3545C33.2861 33.3545 33.4619 33.1836 33.4619 32.9639C33.4619 32.8711 33.4277 32.7832 33.3691 32.71L27.0264 25.1465L33.3789 17.5781C33.4375 17.5098 33.4668 17.417 33.4668 17.3242Z" fill="black"/>
<path d="M25 3.17383C12.9199 3.17383 3.125 12.9688 3.125 25.0488C3.125 37.1289 12.9199 46.9238 25 46.9238C37.0801 46.9238 46.875 37.1289 46.875 25.0488C46.875 12.9688 37.0801 3.17383 25 3.17383ZM25 43.2129C14.9707 43.2129 6.83594 35.0781 6.83594 25.0488C6.83594 15.0195 14.9707 6.88477 25 6.88477C35.0293 6.88477 43.1641 15.0195 43.1641 25.0488C43.1641 35.0781 35.0293 43.2129 25 43.2129Z" fill="black"/>
</svg>
