<svg width="50" height="50" viewBox="0 0 50 50" fill="none" xmlns="http://www.w3.org/2000/svg">
<path d="M9.375 4.6875V45.3125H34.375V42.1875H12.5V7.8125H28.125V17.1875H37.5V20.3125H40.625V15L40.1563 14.5313L30.7813 5.15625L30.3125 4.6875H9.375V4.6875ZM31.25 10L35.3125 14.0625H31.25V10ZM15.625 20.3125V23.4375H34.375V20.3125H15.625ZM42.1875 23.4375V26.5625C39.5312 27.0313 37.5 29.2188 37.5 32.0312C37.5 35.1562 39.8438 37.5 42.9688 37.5H44.5312C45.7813 37.5 46.875 38.5937 46.875 39.8438C46.875 41.0938 45.7813 42.1875 44.5312 42.1875H39.0625V45.3125H42.1875V48.4375H45.3125V45.3125C47.9688 44.8437 50 42.6562 50 39.8438C50 36.7188 47.6562 34.375 44.5312 34.375H42.9688C41.7187 34.375 40.625 33.2813 40.625 32.0312C40.625 30.7812 41.7187 29.6875 42.9688 29.6875H48.4375V26.5625H45.3125V23.4375H42.1875ZM15.625 28.125V31.25H26.5625V28.125H15.625ZM29.6875 28.125V31.25H34.375V28.125H29.6875ZM15.625 34.375V37.5H26.5625V34.375H15.625ZM29.6875 34.375V37.5H34.375V34.375H29.6875Z" fill="black"/>
</svg>
