<svg width="50" height="50" viewBox="0 0 50 50" fill="none" xmlns="http://www.w3.org/2000/svg">
<path d="M39 38H11C9.3 38 8 36.7 8 35V15C8 13.3 9.3 12 11 12H39C40.7 12 42 13.3 42 15V35C42 36.7 40.7 38 39 38ZM11 14C10.4 14 10 14.4 10 15V35C10 35.6 10.4 36 11 36H39C39.6 36 40 35.6 40 35V15C40 14.4 39.6 14 39 14H11Z" fill="black"/>
<path d="M9 16H41V22H9V16ZM12 26H13V28H12V26ZM14 26H15V28H14V26ZM16 26H17V28H16V26ZM19 26H20V28H19V26ZM21 26H22V28H21V26ZM23 26H24V28H23V26ZM26 26H27V28H26V26ZM28 26H29V28H28V26ZM30 26H31V28H30V26ZM33 26H34V28H33V26ZM35 26H36V28H35V26ZM37 26H38V28H37V26Z" fill="black"/>
</svg>
