<svg width="50" height="50" viewBox="0 0 50 50" fill="none" xmlns="http://www.w3.org/2000/svg">
<path d="M18.75 25C21.2364 25 23.621 24.0123 25.3791 22.2541C27.1373 20.496 28.125 18.1114 28.125 15.625C28.125 13.1386 27.1373 10.754 25.3791 8.99587C23.621 7.23772 21.2364 6.25 18.75 6.25C16.2636 6.25 13.879 7.23772 12.1209 8.99587C10.3627 10.754 9.375 13.1386 9.375 15.625C9.375 18.1114 10.3627 20.496 12.1209 22.2541C13.879 24.0123 16.2636 25 18.75 25V25ZM25 15.625C25 17.2826 24.3415 18.8723 23.1694 20.0444C21.9973 21.2165 20.4076 21.875 18.75 21.875C17.0924 21.875 15.5027 21.2165 14.3306 20.0444C13.1585 18.8723 12.5 17.2826 12.5 15.625C12.5 13.9674 13.1585 12.3777 14.3306 11.2056C15.5027 10.0335 17.0924 9.375 18.75 9.375C20.4076 9.375 21.9973 10.0335 23.1694 11.2056C24.3415 12.3777 25 13.9674 25 15.625V15.625ZM37.5 40.625C37.5 43.75 34.375 43.75 34.375 43.75H3.125C3.125 43.75 0 43.75 0 40.625C0 37.5 3.125 28.125 18.75 28.125C34.375 28.125 37.5 37.5 37.5 40.625ZM34.375 40.6125C34.3719 39.8438 33.8938 37.5312 31.775 35.4125C29.7375 33.375 25.9031 31.25 18.75 31.25C11.5938 31.25 7.7625 33.375 5.725 35.4125C3.60625 37.5312 3.13125 39.8438 3.125 40.6125H34.375Z" fill="black"/>
<path fill-rule="evenodd" clip-rule="evenodd" d="M42.1875 15.625C42.6019 15.625 42.9993 15.7896 43.2924 16.0826C43.5854 16.3757 43.75 16.7731 43.75 17.1875V21.875H48.4375C48.8519 21.875 49.2493 22.0396 49.5424 22.3326C49.8354 22.6257 50 23.0231 50 23.4375C50 23.8519 49.8354 24.2493 49.5424 24.5424C49.2493 24.8354 48.8519 25 48.4375 25H43.75V29.6875C43.75 30.1019 43.5854 30.4993 43.2924 30.7924C42.9993 31.0854 42.6019 31.25 42.1875 31.25C41.7731 31.25 41.3757 31.0854 41.0826 30.7924C40.7896 30.4993 40.625 30.1019 40.625 29.6875V25H35.9375C35.5231 25 35.1257 24.8354 34.8326 24.5424C34.5396 24.2493 34.375 23.8519 34.375 23.4375C34.375 23.0231 34.5396 22.6257 34.8326 22.3326C35.1257 22.0396 35.5231 21.875 35.9375 21.875H40.625V17.1875C40.625 16.7731 40.7896 16.3757 41.0826 16.0826C41.3757 15.7896 41.7731 15.625 42.1875 15.625Z" fill="black"/>
</svg>
