<svg width="50" height="50" viewBox="0 0 50 50" fill="none" xmlns="http://www.w3.org/2000/svg">
<path d="M28.7917 45.8333H21.2084C20.7332 45.8334 20.2723 45.6711 19.9021 45.3732C19.5319 45.0754 19.2746 44.66 19.1729 44.1958L18.325 40.2708C17.1939 39.7752 16.1213 39.1554 15.1271 38.4229L11.3 39.6417C10.847 39.7861 10.3583 39.7713 9.91486 39.5996C9.47146 39.4279 9.10013 39.1098 8.86252 38.6979L5.06252 32.1333C4.82741 31.7211 4.73915 31.2413 4.8122 30.7724C4.88524 30.3035 5.11525 29.8733 5.46461 29.5521L8.43336 26.8438C8.29835 25.6169 8.29835 24.3789 8.43336 23.1521L5.46461 20.45C5.11476 20.1287 4.88443 19.6981 4.81138 19.2287C4.73832 18.7594 4.82688 18.2791 5.06252 17.8667L8.85419 11.2979C9.0918 10.8861 9.46313 10.5679 9.90652 10.3962C10.3499 10.2246 10.8387 10.2097 11.2917 10.3542L15.1188 11.5729C15.6271 11.1979 16.1563 10.8479 16.7021 10.5313C17.2292 10.2354 17.7709 9.96667 18.325 9.72709L19.175 5.80626C19.2762 5.34208 19.533 4.92644 19.9028 4.62823C20.2726 4.33003 20.7333 4.16717 21.2084 4.16667H28.7917C29.2668 4.16717 29.7274 4.33003 30.0972 4.62823C30.467 4.92644 30.7238 5.34208 30.825 5.80626L31.6834 9.72917C32.8138 10.2248 33.8857 10.8446 34.8792 11.5771L38.7084 10.3583C39.1611 10.2144 39.6494 10.2295 40.0923 10.4012C40.5353 10.5728 40.9063 10.8907 41.1438 11.3021L44.9354 17.8708C45.4188 18.7188 45.2521 19.7917 44.5334 20.4521L41.5646 23.1604C41.6996 24.3873 41.6996 25.6252 41.5646 26.8521L44.5334 29.5604C45.2521 30.2229 45.4188 31.2938 44.9354 32.1417L41.1438 38.7104C40.9062 39.1223 40.5348 39.4404 40.0914 39.6121C39.648 39.7838 39.1593 39.7986 38.7063 39.6542L34.8792 38.4354C33.8857 39.1674 32.8138 39.7865 31.6834 40.2813L30.825 44.1958C30.7234 44.6596 30.4664 45.0748 30.0967 45.3726C29.7269 45.6704 29.2665 45.8329 28.7917 45.8333ZM15.875 33.8104L17.5834 35.0604C17.9688 35.3438 18.3688 35.6042 18.7854 35.8417C19.1771 36.0688 19.5771 36.2729 19.9917 36.4583L21.9354 37.3104L22.8875 41.6667H27.1167L28.0688 37.3083L30.0125 36.4563C30.8604 36.0813 31.6667 35.6167 32.4146 35.0688L34.1229 33.8188L38.3771 35.1729L40.4917 31.5104L37.1938 28.5042L37.4271 26.3958C37.5313 25.4729 37.5313 24.5417 37.4271 23.6208L37.1938 21.5125L40.4938 18.5L38.3771 14.8354L34.125 16.1896L32.4146 14.9396C31.6663 14.3889 30.861 13.9203 30.0125 13.5417L28.0688 12.6896L27.1167 8.33334H22.8875L21.9292 12.6917L19.9917 13.5417C19.1421 13.9138 18.3364 14.3791 17.5896 14.9292L15.8792 16.1792L11.6292 14.825L9.51044 18.5L12.8084 21.5021L12.575 23.6125C12.4709 24.5354 12.4709 25.4667 12.575 26.3875L12.8084 28.4958L9.51044 31.5021L11.625 35.1646L15.875 33.8104V33.8104ZM24.9917 33.3333C22.7816 33.3333 20.6619 32.4554 19.0991 30.8926C17.5363 29.3298 16.6584 27.2101 16.6584 25C16.6584 22.7899 17.5363 20.6703 19.0991 19.1074C20.6619 17.5446 22.7816 16.6667 24.9917 16.6667C27.2018 16.6667 29.3214 17.5446 30.8842 19.1074C32.447 20.6703 33.325 22.7899 33.325 25C33.325 27.2101 32.447 29.3298 30.8842 30.8926C29.3214 32.4554 27.2018 33.3333 24.9917 33.3333ZM24.9917 20.8333C24.1758 20.8342 23.378 21.0745 22.6975 21.5246C22.0169 21.9747 21.4835 22.6147 21.1634 23.3652C20.8432 24.1157 20.7505 24.9437 20.8966 25.7464C21.0428 26.5491 21.4214 27.2913 21.9855 27.8808C22.5496 28.4703 23.2744 28.8812 24.0699 29.0625C24.8655 29.2438 25.6967 29.1876 26.4606 28.9008C27.2244 28.614 27.8873 28.1092 28.3668 27.4491C28.8464 26.789 29.1216 26.0026 29.1584 25.1875V26.0208V25C29.1584 23.8949 28.7194 22.8351 27.938 22.0537C27.1566 21.2723 26.0968 20.8333 24.9917 20.8333Z" fill="black"/>
</svg>
