<svg width="50" height="50" viewBox="0 0 50 50" fill="none" xmlns="http://www.w3.org/2000/svg">
<path fill-rule="evenodd" clip-rule="evenodd" d="M36.6375 4.16666C37.4189 3.38553 38.4785 2.94672 39.5833 2.94672C40.6882 2.94672 41.7478 3.38553 42.5292 4.16666L45.8333 7.47083C46.6145 8.25219 47.0533 9.31181 47.0533 10.4167C47.0533 11.5215 46.6145 12.5811 45.8333 13.3625L42.5292 16.6667L33.3333 7.47083L36.6375 4.16666ZM30.3875 10.4167L19.9708 20.8333C19.1894 21.6145 18.7502 22.6742 18.75 23.7792V27.0833C18.75 28.1884 19.189 29.2482 19.9704 30.0296C20.7518 30.811 21.8116 31.25 22.9167 31.25H26.2208C27.3258 31.2498 28.3854 30.8106 29.1667 30.0292L39.5833 19.6125L30.3875 10.4167V10.4167Z" fill="black"/>
<path d="M12.5 29.1667H10.4167C9.3116 29.1667 8.25179 29.6056 7.47039 30.387C6.68899 31.1684 6.25 32.2283 6.25 33.3333V33.3333C6.25 34.4384 6.68899 35.4982 7.47039 36.2796C8.25179 37.061 9.3116 37.5 10.4167 37.5H39.5833C40.6884 37.5 41.7482 37.939 42.5296 38.7204C43.311 39.5018 43.75 40.5616 43.75 41.6667C43.75 42.7717 43.311 43.8315 42.5296 44.6129C41.7482 45.3943 40.6884 45.8333 39.5833 45.8333H31.25" stroke="black" stroke-width="2" stroke-linecap="round" stroke-linejoin="round"/>
</svg>
